<svg width="32" height="32" viewBox="0 0 32 32" fill="none" xmlns="http://www.w3.org/2000/svg">
<path d="M12.6676 16.1652C12.6676 14.3471 14.1595 12.8728 16.0004 12.8728C17.8413 12.8728 19.334 14.3471 19.334 16.1652C19.334 17.9834 17.8413 19.4576 16.0004 19.4576C14.1595 19.4576 12.6676 17.9834 12.6676 16.1652ZM10.8655 16.1652C10.8655 18.9662 13.1644 21.2367 16.0004 21.2367C18.8364 21.2367 21.1353 18.9662 21.1353 16.1652C21.1353 13.3643 18.8364 11.0938 16.0004 11.0938C13.1644 11.0938 10.8655 13.3643 10.8655 16.1652ZM20.1386 10.8927C20.1385 11.1271 20.2087 11.3563 20.3405 11.5513C20.4723 11.7462 20.6597 11.8982 20.8789 11.988C21.0981 12.0778 21.3394 12.1013 21.5722 12.0557C21.805 12.0101 22.0189 11.8973 22.1867 11.7316C22.3546 11.5659 22.469 11.3548 22.5154 11.1249C22.5618 10.895 22.5381 10.6567 22.4474 10.4401C22.3567 10.2235 22.2029 10.0383 22.0056 9.90803C21.8084 9.77773 21.5764 9.70813 21.339 9.70803H21.3386C21.0204 9.70818 20.7154 9.83303 20.4904 10.0552C20.2654 10.2773 20.1388 10.5785 20.1386 10.8927ZM11.9604 24.2044C10.9854 24.1605 10.4555 24.0002 10.1034 23.8646C9.63648 23.6851 9.30336 23.4713 8.95312 23.1259C8.60288 22.7805 8.38608 22.4518 8.20512 21.9907C8.06784 21.643 7.90544 21.1195 7.86112 20.1566C7.81264 19.1155 7.80296 18.8028 7.80296 16.1653C7.80296 13.5278 7.81344 13.216 7.86112 12.1741C7.90552 11.2111 8.06912 10.6886 8.20512 10.34C8.38688 9.87886 8.60336 9.54985 8.95312 9.20394C9.30288 8.85803 9.63568 8.64391 10.1034 8.46519C10.4554 8.3296 10.9854 8.16921 11.9604 8.12544C13.0145 8.07756 13.3311 8.068 16.0004 8.068C18.6697 8.068 18.9866 8.07835 20.0416 8.12544C21.0166 8.16929 21.5456 8.33087 21.8986 8.46519C22.3655 8.64391 22.6986 8.8585 23.0489 9.20394C23.3991 9.54938 23.6151 9.87886 23.7969 10.34C23.9342 10.6876 24.0966 11.2111 24.1409 12.1741C24.1894 13.216 24.199 13.5278 24.199 16.1653C24.199 18.8028 24.1894 19.1146 24.1409 20.1566C24.0965 21.1195 23.9333 21.6429 23.7969 21.9907C23.6151 22.4518 23.3986 22.7808 23.0489 23.1259C22.6991 23.471 22.3655 23.6851 21.8986 23.8646C21.5466 24.0002 21.0166 24.1606 20.0416 24.2044C18.9875 24.2523 18.6709 24.2618 16.0004 24.2618C13.3299 24.2618 13.0142 24.2523 11.9604 24.2044ZM11.8776 6.34863C10.813 6.39651 10.0856 6.56322 9.45032 6.80737C8.7924 7.05949 8.23544 7.39774 7.67888 7.94655C7.12232 8.49537 6.78072 9.04631 6.52544 9.6961C6.27824 10.3239 6.10944 11.042 6.06096 12.0934C6.01168 13.1464 6.0004 13.4831 6.0004 16.1652C6.0004 18.8474 6.01168 19.184 6.06096 20.2371C6.10944 21.2886 6.27824 22.0065 6.52544 22.6344C6.78072 23.2838 7.1224 23.8353 7.67888 24.3839C8.23536 24.9325 8.7924 25.2703 9.45032 25.5231C10.0868 25.7672 10.813 25.934 11.8776 25.9818C12.9444 26.0297 13.2847 26.0416 16.0004 26.0416C18.7161 26.0416 19.057 26.0305 20.1232 25.9818C21.1878 25.934 21.9148 25.7672 22.5505 25.5231C23.208 25.2703 23.7654 24.9327 24.3219 24.3839C24.8785 23.8351 25.2194 23.2838 25.4754 22.6344C25.7226 22.0065 25.8922 21.2885 25.9398 20.2371C25.9883 19.1832 25.9996 18.8474 25.9996 16.1652C25.9996 13.4831 25.9883 13.1464 25.9398 12.0934C25.8914 11.0419 25.7226 10.3235 25.4754 9.6961C25.2194 9.04671 24.8776 8.49624 24.3219 7.94655C23.7662 7.39687 23.208 7.05949 22.5513 6.80737C21.9148 6.56322 21.1878 6.39572 20.124 6.34863C19.0578 6.30075 18.7169 6.28882 16.0012 6.28882C13.2855 6.28882 12.9444 6.29996 11.8776 6.34863Z" fill="#121212" fill-opacity="0.6"/>
</svg>
