<svg width="32" height="32" viewBox="0 0 32 32" fill="none" xmlns="http://www.w3.org/2000/svg">
<path d="M23.8415 12.7495C23.8415 12.9223 23.8415 13.0951 23.8415 13.2433C23.8415 18.3543 19.8915 24.2555 12.6915 24.2555C10.4665 24.2555 8.41653 23.6135 6.66653 22.5271C6.96653 22.5518 7.29153 22.5765 7.59153 22.5765C9.41653 22.5765 11.1165 21.9592 12.4665 20.9222C10.7415 20.8975 9.29153 19.7617 8.81653 18.2309C9.06653 18.2803 9.29153 18.305 9.56653 18.305C9.91653 18.305 10.2665 18.2556 10.5915 18.1568C8.79153 17.8111 7.44153 16.2556 7.44153 14.3791C7.44153 14.3544 7.44153 14.3544 7.44153 14.3297C7.96653 14.626 8.56653 14.7988 9.21653 14.8235C8.16653 14.1322 7.46653 12.947 7.46653 11.589C7.46653 10.873 7.66653 10.2063 7.99153 9.6384C9.91653 11.9841 12.8165 13.5149 16.0665 13.6877C15.9915 13.4161 15.9665 13.0951 15.9665 12.7989C15.9665 10.6507 17.7165 8.92236 19.8915 8.92236C21.0165 8.92236 22.0415 9.39149 22.7415 10.1322C23.6415 9.95939 24.4665 9.6384 25.2415 9.19396C24.9415 10.1075 24.3165 10.8483 23.5165 11.3421C24.3165 11.2433 25.0665 11.0458 25.7665 10.7248C25.2665 11.5149 24.6165 12.2063 23.8415 12.7495Z" fill="#121212" fill-opacity="0.6"/>
</svg>
